<?xml version="1.0" encoding="UTF-8" standalone="no"?>
<!DOCTYPE svg PUBLIC "-//W3C//DTD SVG 1.1//EN" "http://www.w3.org/Graphics/SVG/1.1/DTD/svg11.dtd">
<svg width="100%" height="100%" viewBox="0 0 1080 1080" version="1.1" xmlns="http://www.w3.org/2000/svg" xmlns:xlink="http://www.w3.org/1999/xlink" xml:space="preserve" xmlns:serif="http://www.serif.com/" style="fill-rule:evenodd;clip-rule:evenodd;stroke-linecap:round;stroke-linejoin:round;stroke-miterlimit:1.5;">
    <g id="logo" transform="matrix(1.38559,0,0,1.38559,-208.22,-208.22)">
        <g transform="matrix(1,0,0,1,-0.585059,-59.4155)">
            <g id="laurel" transform="matrix(0.543788,0.274433,-0.274433,0.543788,461.578,160.634)">
                <path d="M845.552,223.018C845.552,223.018 882.074,285.823 893.68,312.106C901.181,329.094 906.963,347.044 910.064,365.354C913.648,386.517 915.184,418.897 915.184,439.082C915.184,461.951 914.501,492.842 912.112,515.882C909.736,538.791 908.737,563.578 903.92,586.538C898.8,610.943 889.242,640.298 881.392,664.362C873.857,687.456 868.874,712.801 856.816,738.09C844.528,763.861 822.682,801.066 807.664,824.106C793.6,845.681 775.237,865.92 759.536,885.546C748.642,899.163 709.36,939.818 709.36,939.818" style="fill:none;stroke:rgb(255,163,154);stroke-opacity:0.65;stroke-width:20.24px;"/>
                <g transform="matrix(0.85652,0.516114,-0.516114,0.85652,743.896,543.777)">
                    <g transform="matrix(0.671282,-0.800003,0.800003,0.671282,-368.562,361.273)">
                        <path d="M400.454,364.344C380.194,355.461 366.026,335.221 366.026,311.698C366.026,288.175 380.194,267.935 400.454,259.052C420.714,267.935 434.881,288.175 434.881,311.698C434.881,335.221 420.714,355.461 400.454,364.344Z" style="fill:white;stroke:rgb(255,163,154);stroke-opacity:0.65;stroke-width:1.13px;"/>
                    </g>
                    <g transform="matrix(-0.671282,-0.800003,-0.800003,0.671282,756.858,361.273)">
                        <path d="M400.454,364.344C420.714,355.461 434.881,335.221 434.881,311.698C434.881,288.175 420.714,267.935 400.454,259.052C380.194,267.935 366.026,288.175 366.026,311.698C366.026,335.221 380.194,355.461 400.454,364.344Z" style="fill:white;stroke:rgb(255,163,154);stroke-opacity:0.65;stroke-width:1.13px;"/>
                    </g>
                </g>
                <g transform="matrix(0.833076,0.46558,-0.46558,0.833076,781.574,492.737)">
                    <g transform="matrix(0.671282,-0.800003,0.800003,0.671282,-368.562,361.273)">
                        <path d="M400.454,364.344C380.194,355.461 366.026,335.221 366.026,311.698C366.026,288.175 380.194,267.935 400.454,259.052C420.714,267.935 434.881,288.175 434.881,311.698C434.881,335.221 420.714,355.461 400.454,364.344Z" style="fill:white;stroke:rgb(255,163,154);stroke-opacity:0.65;stroke-width:1.19px;"/>
                    </g>
                    <g transform="matrix(-0.671282,-0.800003,-0.800003,0.671282,756.858,361.273)">
                        <path d="M400.454,364.344C420.714,355.461 434.881,335.221 434.881,311.698C434.881,288.175 420.714,267.935 400.454,259.052C380.194,267.935 366.026,288.175 366.026,311.698C366.026,335.221 380.194,355.461 400.454,364.344Z" style="fill:white;stroke:rgb(255,163,154);stroke-opacity:0.65;stroke-width:1.19px;"/>
                    </g>
                </g>
                <g transform="matrix(0.863114,0.284502,-0.284502,0.863114,769.119,443.277)">
                    <g transform="matrix(0.671282,-0.800003,0.800003,0.671282,-368.562,361.273)">
                        <path d="M400.454,364.344C380.194,355.461 366.026,335.221 366.026,311.698C366.026,288.175 380.194,267.935 400.454,259.052C420.714,267.935 434.881,288.175 434.881,311.698C434.881,335.221 420.714,355.461 400.454,364.344Z" style="fill:white;stroke:rgb(255,163,154);stroke-opacity:0.65;stroke-width:1.25px;"/>
                    </g>
                    <g transform="matrix(-0.671282,-0.800003,-0.800003,0.671282,756.858,361.273)">
                        <path d="M400.454,364.344C420.714,355.461 434.881,335.221 434.881,311.698C434.881,288.175 420.714,267.935 400.454,259.052C380.194,267.935 366.026,288.175 366.026,311.698C366.026,335.221 380.194,355.461 400.454,364.344Z" style="fill:white;stroke:rgb(255,163,154);stroke-opacity:0.65;stroke-width:1.25px;"/>
                    </g>
                </g>
                <g transform="matrix(0.844574,0.178547,-0.178547,0.844574,770.493,392.014)">
                    <g transform="matrix(0.671282,-0.800003,0.800003,0.671282,-368.562,361.273)">
                        <path d="M400.454,364.344C380.194,355.461 366.026,335.221 366.026,311.698C366.026,288.175 380.194,267.935 400.454,259.052C420.714,267.935 434.881,288.175 434.881,311.698C434.881,335.221 420.714,355.461 400.454,364.344Z" style="fill:white;stroke:rgb(255,163,154);stroke-opacity:0.65;stroke-width:1.31px;"/>
                    </g>
                    <g transform="matrix(-0.671282,-0.800003,-0.800003,0.671282,756.858,361.273)">
                        <path d="M400.454,364.344C420.714,355.461 434.881,335.221 434.881,311.698C434.881,288.175 420.714,267.935 400.454,259.052C380.194,267.935 366.026,288.175 366.026,311.698C366.026,335.221 380.194,355.461 400.454,364.344Z" style="fill:white;stroke:rgb(255,163,154);stroke-opacity:0.65;stroke-width:1.31px;"/>
                    </g>
                </g>
                <g transform="matrix(0.81033,0.109444,-0.109444,0.81033,780.562,338.715)">
                    <g transform="matrix(0.671282,-0.800003,0.800003,0.671282,-368.562,361.273)">
                        <path d="M400.454,364.344C380.194,355.461 366.026,335.221 366.026,311.698C366.026,288.175 380.194,267.935 400.454,259.052C420.714,267.935 434.881,288.175 434.881,311.698C434.881,335.221 420.714,355.461 400.454,364.344Z" style="fill:white;stroke:rgb(255,163,154);stroke-opacity:0.65;stroke-width:1.39px;"/>
                    </g>
                    <g transform="matrix(-0.671282,-0.800003,-0.800003,0.671282,756.858,361.273)">
                        <path d="M400.454,364.344C420.714,355.461 434.881,335.221 434.881,311.698C434.881,288.175 420.714,267.935 400.454,259.052C380.194,267.935 366.026,288.175 366.026,311.698C366.026,335.221 380.194,355.461 400.454,364.344Z" style="fill:white;stroke:rgb(255,163,154);stroke-opacity:0.65;stroke-width:1.39px;"/>
                    </g>
                </g>
                <g transform="matrix(0.771941,0.0172479,-0.0172479,0.771941,769.726,293.895)">
                    <g transform="matrix(0.671282,-0.800003,0.800003,0.671282,-368.562,361.273)">
                        <path d="M400.454,364.344C380.194,355.461 366.026,335.221 366.026,311.698C366.026,288.175 380.194,267.935 400.454,259.052C420.714,267.935 434.881,288.175 434.881,311.698C434.881,335.221 420.714,355.461 400.454,364.344Z" style="fill:white;stroke:rgb(255,163,154);stroke-opacity:0.65;stroke-width:1.47px;"/>
                    </g>
                    <g transform="matrix(-0.671282,-0.800003,-0.800003,0.671282,756.858,361.273)">
                        <path d="M400.454,364.344C420.714,355.461 434.881,335.221 434.881,311.698C434.881,288.175 420.714,267.935 400.454,259.052C380.194,267.935 366.026,288.175 366.026,311.698C366.026,335.221 380.194,355.461 400.454,364.344Z" style="fill:white;stroke:rgb(255,163,154);stroke-opacity:0.65;stroke-width:1.47px;"/>
                    </g>
                </g>
                <g transform="matrix(0.726098,-0.0264649,0.0264649,0.726098,770.926,246.869)">
                    <g transform="matrix(0.671282,-0.800003,0.800003,0.671282,-368.562,361.273)">
                        <path d="M400.454,364.344C380.194,355.461 366.026,335.221 366.026,311.698C366.026,288.175 380.194,267.935 400.454,259.052C420.714,267.935 434.881,288.175 434.881,311.698C434.881,335.221 420.714,355.461 400.454,364.344Z" style="fill:white;stroke:rgb(255,163,154);stroke-opacity:0.65;stroke-width:1.56px;"/>
                    </g>
                    <g transform="matrix(-0.671282,-0.800003,-0.800003,0.671282,756.858,361.273)">
                        <path d="M400.454,364.344C420.714,355.461 434.881,335.221 434.881,311.698C434.881,288.175 420.714,267.935 400.454,259.052C380.194,267.935 366.026,288.175 366.026,311.698C366.026,335.221 380.194,355.461 400.454,364.344Z" style="fill:white;stroke:rgb(255,163,154);stroke-opacity:0.65;stroke-width:1.56px;"/>
                    </g>
                </g>
                <g transform="matrix(0.663885,-0.151834,0.151834,0.663885,741.364,217.236)">
                    <g transform="matrix(0.671282,-0.800003,0.800003,0.671282,-368.562,361.273)">
                        <path d="M400.454,364.344C380.194,355.461 366.026,335.221 366.026,311.698C366.026,288.175 380.194,267.935 400.454,259.052C420.714,267.935 434.881,288.175 434.881,311.698C434.881,335.221 420.714,355.461 400.454,364.344Z" style="fill:white;stroke:rgb(255,163,154);stroke-opacity:0.65;stroke-width:1.67px;"/>
                    </g>
                    <g transform="matrix(-0.671282,-0.800003,-0.800003,0.671282,756.858,361.273)">
                        <path d="M400.454,364.344C420.714,355.461 434.881,335.221 434.881,311.698C434.881,288.175 420.714,267.935 400.454,259.052C380.194,267.935 366.026,288.175 366.026,311.698C366.026,335.221 380.194,355.461 400.454,364.344Z" style="fill:white;stroke:rgb(255,163,154);stroke-opacity:0.65;stroke-width:1.67px;"/>
                    </g>
                </g>
                <g transform="matrix(0.595477,-0.221885,0.221885,0.595477,713.748,187.925)">
                    <g transform="matrix(0.671282,-0.800003,0.800003,0.671282,-368.562,361.273)">
                        <path d="M400.454,364.344C380.194,355.461 366.026,335.221 366.026,311.698C366.026,288.175 380.194,267.935 400.454,259.052C420.714,267.935 434.881,288.175 434.881,311.698C434.881,335.221 420.714,355.461 400.454,364.344Z" style="fill:white;stroke:rgb(255,163,154);stroke-opacity:0.65;stroke-width:1.79px;"/>
                    </g>
                    <g transform="matrix(-0.671282,-0.800003,-0.800003,0.671282,756.858,361.273)">
                        <path d="M400.454,364.344C420.714,355.461 434.881,335.221 434.881,311.698C434.881,288.175 420.714,267.935 400.454,259.052C380.194,267.935 366.026,288.175 366.026,311.698C366.026,335.221 380.194,355.461 400.454,364.344Z" style="fill:white;stroke:rgb(255,163,154);stroke-opacity:0.65;stroke-width:1.79px;"/>
                    </g>
                </g>
                <g transform="matrix(0.493761,-0.322807,0.322807,0.493761,677.56,179.631)">
                    <g transform="matrix(0.671282,-0.800003,0.800003,0.671282,-368.562,361.273)">
                        <path d="M400.454,364.344C380.194,355.461 366.026,335.221 366.026,311.698C366.026,288.175 380.194,267.935 400.454,259.052C420.714,267.935 434.881,288.175 434.881,311.698C434.881,335.221 420.714,355.461 400.454,364.344Z" style="fill:white;stroke:rgb(255,163,154);stroke-opacity:0.65;stroke-width:1.92px;"/>
                    </g>
                    <g transform="matrix(-0.671282,-0.800003,-0.800003,0.671282,756.858,361.273)">
                        <path d="M400.454,364.344C420.714,355.461 434.881,335.221 434.881,311.698C434.881,288.175 420.714,267.935 400.454,259.052C380.194,267.935 366.026,288.175 366.026,311.698C366.026,335.221 380.194,355.461 400.454,364.344Z" style="fill:white;stroke:rgb(255,163,154);stroke-opacity:0.65;stroke-width:1.92px;"/>
                    </g>
                </g>
                <g transform="matrix(0.410894,-0.410894,0.410894,0.410894,532.405,238.392)">
                    <path d="M400.454,364.344C380.194,355.461 366.026,335.221 366.026,311.698C366.026,288.175 380.194,267.935 400.454,259.052C420.714,267.935 434.881,288.175 434.881,311.698C434.881,335.221 420.714,355.461 400.454,364.344Z" style="fill:white;stroke:rgb(255,163,154);stroke-opacity:0.65;stroke-width:2.04px;"/>
                </g>
            </g>
            <g id="laurel1" serif:id="laurel" transform="matrix(-0.543788,0.274433,0.274433,0.543788,619.592,160.634)">
                <path d="M845.552,223.018C845.552,223.018 882.074,285.823 893.68,312.106C901.181,329.094 906.963,347.044 910.064,365.354C913.648,386.517 915.184,418.897 915.184,439.082C915.184,461.951 914.501,492.842 912.112,515.882C909.736,538.791 908.737,563.578 903.92,586.538C898.8,610.943 889.242,640.298 881.392,664.362C873.857,687.456 868.874,712.801 856.816,738.09C844.528,763.861 822.682,801.066 807.664,824.106C793.6,845.681 775.237,865.92 759.536,885.546C748.642,899.163 709.36,939.818 709.36,939.818" style="fill:none;stroke:rgb(255,163,154);stroke-opacity:0.65;stroke-width:20.24px;"/>
                <g transform="matrix(0.85652,0.516114,-0.516114,0.85652,743.896,543.777)">
                    <g transform="matrix(0.671282,-0.800003,0.800003,0.671282,-368.562,361.273)">
                        <path d="M400.454,364.344C380.194,355.461 366.026,335.221 366.026,311.698C366.026,288.175 380.194,267.935 400.454,259.052C420.714,267.935 434.881,288.175 434.881,311.698C434.881,335.221 420.714,355.461 400.454,364.344Z" style="fill:white;stroke:rgb(255,163,154);stroke-opacity:0.65;stroke-width:1.13px;"/>
                    </g>
                    <g transform="matrix(-0.671282,-0.800003,-0.800003,0.671282,756.858,361.273)">
                        <path d="M400.454,364.344C420.714,355.461 434.881,335.221 434.881,311.698C434.881,288.175 420.714,267.935 400.454,259.052C380.194,267.935 366.026,288.175 366.026,311.698C366.026,335.221 380.194,355.461 400.454,364.344Z" style="fill:white;stroke:rgb(255,163,154);stroke-opacity:0.65;stroke-width:1.13px;"/>
                    </g>
                </g>
                <g transform="matrix(0.833076,0.46558,-0.46558,0.833076,781.574,492.737)">
                    <g transform="matrix(0.671282,-0.800003,0.800003,0.671282,-368.562,361.273)">
                        <path d="M400.454,364.344C380.194,355.461 366.026,335.221 366.026,311.698C366.026,288.175 380.194,267.935 400.454,259.052C420.714,267.935 434.881,288.175 434.881,311.698C434.881,335.221 420.714,355.461 400.454,364.344Z" style="fill:white;stroke:rgb(255,163,154);stroke-opacity:0.65;stroke-width:1.19px;"/>
                    </g>
                    <g transform="matrix(-0.671282,-0.800003,-0.800003,0.671282,756.858,361.273)">
                        <path d="M400.454,364.344C420.714,355.461 434.881,335.221 434.881,311.698C434.881,288.175 420.714,267.935 400.454,259.052C380.194,267.935 366.026,288.175 366.026,311.698C366.026,335.221 380.194,355.461 400.454,364.344Z" style="fill:white;stroke:rgb(255,163,154);stroke-opacity:0.65;stroke-width:1.19px;"/>
                    </g>
                </g>
                <g transform="matrix(0.863114,0.284502,-0.284502,0.863114,769.119,443.277)">
                    <g transform="matrix(0.671282,-0.800003,0.800003,0.671282,-368.562,361.273)">
                        <path d="M400.454,364.344C380.194,355.461 366.026,335.221 366.026,311.698C366.026,288.175 380.194,267.935 400.454,259.052C420.714,267.935 434.881,288.175 434.881,311.698C434.881,335.221 420.714,355.461 400.454,364.344Z" style="fill:white;stroke:rgb(255,163,154);stroke-opacity:0.65;stroke-width:1.25px;"/>
                    </g>
                    <g transform="matrix(-0.671282,-0.800003,-0.800003,0.671282,756.858,361.273)">
                        <path d="M400.454,364.344C420.714,355.461 434.881,335.221 434.881,311.698C434.881,288.175 420.714,267.935 400.454,259.052C380.194,267.935 366.026,288.175 366.026,311.698C366.026,335.221 380.194,355.461 400.454,364.344Z" style="fill:white;stroke:rgb(255,163,154);stroke-opacity:0.65;stroke-width:1.25px;"/>
                    </g>
                </g>
                <g transform="matrix(0.844574,0.178547,-0.178547,0.844574,770.493,392.014)">
                    <g transform="matrix(0.671282,-0.800003,0.800003,0.671282,-368.562,361.273)">
                        <path d="M400.454,364.344C380.194,355.461 366.026,335.221 366.026,311.698C366.026,288.175 380.194,267.935 400.454,259.052C420.714,267.935 434.881,288.175 434.881,311.698C434.881,335.221 420.714,355.461 400.454,364.344Z" style="fill:white;stroke:rgb(255,163,154);stroke-opacity:0.65;stroke-width:1.31px;"/>
                    </g>
                    <g transform="matrix(-0.671282,-0.800003,-0.800003,0.671282,756.858,361.273)">
                        <path d="M400.454,364.344C420.714,355.461 434.881,335.221 434.881,311.698C434.881,288.175 420.714,267.935 400.454,259.052C380.194,267.935 366.026,288.175 366.026,311.698C366.026,335.221 380.194,355.461 400.454,364.344Z" style="fill:white;stroke:rgb(255,163,154);stroke-opacity:0.65;stroke-width:1.31px;"/>
                    </g>
                </g>
                <g transform="matrix(0.81033,0.109444,-0.109444,0.81033,780.562,338.715)">
                    <g transform="matrix(0.671282,-0.800003,0.800003,0.671282,-368.562,361.273)">
                        <path d="M400.454,364.344C380.194,355.461 366.026,335.221 366.026,311.698C366.026,288.175 380.194,267.935 400.454,259.052C420.714,267.935 434.881,288.175 434.881,311.698C434.881,335.221 420.714,355.461 400.454,364.344Z" style="fill:white;stroke:rgb(255,163,154);stroke-opacity:0.65;stroke-width:1.39px;"/>
                    </g>
                    <g transform="matrix(-0.671282,-0.800003,-0.800003,0.671282,756.858,361.273)">
                        <path d="M400.454,364.344C420.714,355.461 434.881,335.221 434.881,311.698C434.881,288.175 420.714,267.935 400.454,259.052C380.194,267.935 366.026,288.175 366.026,311.698C366.026,335.221 380.194,355.461 400.454,364.344Z" style="fill:white;stroke:rgb(255,163,154);stroke-opacity:0.65;stroke-width:1.39px;"/>
                    </g>
                </g>
                <g transform="matrix(0.771941,0.0172479,-0.0172479,0.771941,769.726,293.895)">
                    <g transform="matrix(0.671282,-0.800003,0.800003,0.671282,-368.562,361.273)">
                        <path d="M400.454,364.344C380.194,355.461 366.026,335.221 366.026,311.698C366.026,288.175 380.194,267.935 400.454,259.052C420.714,267.935 434.881,288.175 434.881,311.698C434.881,335.221 420.714,355.461 400.454,364.344Z" style="fill:white;stroke:rgb(255,163,154);stroke-opacity:0.65;stroke-width:1.47px;"/>
                    </g>
                    <g transform="matrix(-0.671282,-0.800003,-0.800003,0.671282,756.858,361.273)">
                        <path d="M400.454,364.344C420.714,355.461 434.881,335.221 434.881,311.698C434.881,288.175 420.714,267.935 400.454,259.052C380.194,267.935 366.026,288.175 366.026,311.698C366.026,335.221 380.194,355.461 400.454,364.344Z" style="fill:white;stroke:rgb(255,163,154);stroke-opacity:0.65;stroke-width:1.47px;"/>
                    </g>
                </g>
                <g transform="matrix(0.726098,-0.0264649,0.0264649,0.726098,770.926,246.869)">
                    <g transform="matrix(0.671282,-0.800003,0.800003,0.671282,-368.562,361.273)">
                        <path d="M400.454,364.344C380.194,355.461 366.026,335.221 366.026,311.698C366.026,288.175 380.194,267.935 400.454,259.052C420.714,267.935 434.881,288.175 434.881,311.698C434.881,335.221 420.714,355.461 400.454,364.344Z" style="fill:white;stroke:rgb(255,163,154);stroke-opacity:0.65;stroke-width:1.56px;"/>
                    </g>
                    <g transform="matrix(-0.671282,-0.800003,-0.800003,0.671282,756.858,361.273)">
                        <path d="M400.454,364.344C420.714,355.461 434.881,335.221 434.881,311.698C434.881,288.175 420.714,267.935 400.454,259.052C380.194,267.935 366.026,288.175 366.026,311.698C366.026,335.221 380.194,355.461 400.454,364.344Z" style="fill:white;stroke:rgb(255,163,154);stroke-opacity:0.65;stroke-width:1.56px;"/>
                    </g>
                </g>
                <g transform="matrix(0.663885,-0.151834,0.151834,0.663885,741.364,217.236)">
                    <g transform="matrix(0.671282,-0.800003,0.800003,0.671282,-368.562,361.273)">
                        <path d="M400.454,364.344C380.194,355.461 366.026,335.221 366.026,311.698C366.026,288.175 380.194,267.935 400.454,259.052C420.714,267.935 434.881,288.175 434.881,311.698C434.881,335.221 420.714,355.461 400.454,364.344Z" style="fill:white;stroke:rgb(255,163,154);stroke-opacity:0.65;stroke-width:1.67px;"/>
                    </g>
                    <g transform="matrix(-0.671282,-0.800003,-0.800003,0.671282,756.858,361.273)">
                        <path d="M400.454,364.344C420.714,355.461 434.881,335.221 434.881,311.698C434.881,288.175 420.714,267.935 400.454,259.052C380.194,267.935 366.026,288.175 366.026,311.698C366.026,335.221 380.194,355.461 400.454,364.344Z" style="fill:white;stroke:rgb(255,163,154);stroke-opacity:0.65;stroke-width:1.67px;"/>
                    </g>
                </g>
                <g transform="matrix(0.595477,-0.221885,0.221885,0.595477,713.748,187.925)">
                    <g transform="matrix(0.671282,-0.800003,0.800003,0.671282,-368.562,361.273)">
                        <path d="M400.454,364.344C380.194,355.461 366.026,335.221 366.026,311.698C366.026,288.175 380.194,267.935 400.454,259.052C420.714,267.935 434.881,288.175 434.881,311.698C434.881,335.221 420.714,355.461 400.454,364.344Z" style="fill:white;stroke:rgb(255,163,154);stroke-opacity:0.65;stroke-width:1.79px;"/>
                    </g>
                    <g transform="matrix(-0.671282,-0.800003,-0.800003,0.671282,756.858,361.273)">
                        <path d="M400.454,364.344C420.714,355.461 434.881,335.221 434.881,311.698C434.881,288.175 420.714,267.935 400.454,259.052C380.194,267.935 366.026,288.175 366.026,311.698C366.026,335.221 380.194,355.461 400.454,364.344Z" style="fill:white;stroke:rgb(255,163,154);stroke-opacity:0.65;stroke-width:1.79px;"/>
                    </g>
                </g>
                <g transform="matrix(0.493761,-0.322807,0.322807,0.493761,677.56,179.631)">
                    <g transform="matrix(0.671282,-0.800003,0.800003,0.671282,-368.562,361.273)">
                        <path d="M400.454,364.344C380.194,355.461 366.026,335.221 366.026,311.698C366.026,288.175 380.194,267.935 400.454,259.052C420.714,267.935 434.881,288.175 434.881,311.698C434.881,335.221 420.714,355.461 400.454,364.344Z" style="fill:white;stroke:rgb(255,163,154);stroke-opacity:0.65;stroke-width:1.92px;"/>
                    </g>
                    <g transform="matrix(-0.671282,-0.800003,-0.800003,0.671282,756.858,361.273)">
                        <path d="M400.454,364.344C420.714,355.461 434.881,335.221 434.881,311.698C434.881,288.175 420.714,267.935 400.454,259.052C380.194,267.935 366.026,288.175 366.026,311.698C366.026,335.221 380.194,355.461 400.454,364.344Z" style="fill:white;stroke:rgb(255,163,154);stroke-opacity:0.65;stroke-width:1.92px;"/>
                    </g>
                </g>
                <g transform="matrix(0.410894,-0.410894,0.410894,0.410894,532.405,238.392)">
                    <path d="M400.454,364.344C380.194,355.461 366.026,335.221 366.026,311.698C366.026,288.175 380.194,267.935 400.454,259.052C420.714,267.935 434.881,288.175 434.881,311.698C434.881,335.221 420.714,355.461 400.454,364.344Z" style="fill:white;stroke:rgb(255,163,154);stroke-opacity:0.65;stroke-width:2.04px;"/>
                </g>
            </g>
        </g>
        <g transform="matrix(1.06656,1.38667e-32,-1.84889e-32,-1.06656,-98.0433,1161.21)">
            <path d="M598.227,394.373L655.063,569.296L838.988,569.296L690.19,677.404L747.026,852.327L598.227,744.219L449.429,852.327L506.265,677.404L357.466,569.296L541.391,569.296L598.227,394.373Z" style="fill:white;stroke:white;stroke-opacity:0;stroke-width:0.68px;"/>
        </g>
        <g transform="matrix(0.947342,0,0,0.947342,-173.757,-233.172)">
            <circle cx="753.431" cy="753.431" r="213.431" style="fill:rgb(255,0,0);fill-opacity:0;stroke:rgb(255,89,73);stroke-opacity:0.6;stroke-width:29.24px;"/>
        </g>
        <g transform="matrix(1.06656,1.38667e-32,-1.84889e-32,-1.06656,-98.0433,1161.21)">
            <path d="M598.227,394.373L655.063,569.296L838.988,569.296L690.19,677.404L747.026,852.327L598.227,744.219L449.429,852.327L506.265,677.404L357.466,569.296L541.391,569.296L598.227,394.373Z" style="fill:white;stroke:white;stroke-opacity:0;stroke-width:0.68px;"/>
        </g>
        <g transform="matrix(0.947342,0,0,0.947342,-173.757,-233.172)">
            <circle cx="753.431" cy="753.431" r="213.431" style="fill:white;fill-opacity:0;stroke:black;stroke-opacity:0.09;stroke-width:29.24px;"/>
        </g>
    </g>
</svg>
